<!-- Generator: Adobe Illustrator 19.2.1, SVG Export Plug-In  -->
<svg version="1.1"
	 xmlns="http://www.w3.org/2000/svg" xmlns:xlink="http://www.w3.org/1999/xlink" xmlns:a="http://ns.adobe.com/AdobeSVGViewerExtensions/3.0/"
	 x="0px" y="0px" width="45.8px" height="40.6px" viewBox="0 0 45.8 40.6" style="enable-background:new 0 0 45.8 40.6;"
	 xml:space="preserve">
<style type="text/css">
	.st0{fill:#FFFFFF;stroke:#020210;stroke-width:2;stroke-linecap:round;stroke-linejoin:round;stroke-miterlimit:10;}
	.st1{fill:none;stroke:#020210;stroke-width:2;stroke-linecap:round;stroke-linejoin:round;stroke-miterlimit:10;}
</style>
<defs>
</defs>
<path class="st0" d="M33.5,26.6c0-7.2-5.8-13-13-13s-13,5.8-13,13c-3.6,0-6.5,2.9-6.5,6.5s2.9,6.5,6.5,6.5h26c3.6,0,6.5-2.9,6.5-6.5
	S37.1,26.6,33.5,26.6z"/>
<g>
	<g>
		<path class="st1" d="M29.4,12c1.1,0.2,2.1,0.7,2.9,1.5c0.8,0.8,1.3,1.9,1.5,2.9"/>
		<path class="st1" d="M30,8.3c1.8,0.3,3.5,1.2,4.9,2.6c1.4,1.4,2.2,3.1,2.6,4.9"/>
		<path class="st1" d="M30.7,4.7c2.5,0.5,4.9,1.6,6.9,3.6c1.9,1.9,3.1,4.4,3.6,6.9"/>
		<path class="st1" d="M31.4,1c3.2,0.6,6.3,2.1,8.8,4.6c2.5,2.5,4,5.6,4.6,8.8"/>
	</g>
</g>
</svg>
