<!-- Generator: Adobe Illustrator 19.2.1, SVG Export Plug-In  -->
<svg version="1.1"
	 xmlns="http://www.w3.org/2000/svg" xmlns:xlink="http://www.w3.org/1999/xlink" xmlns:a="http://ns.adobe.com/AdobeSVGViewerExtensions/3.0/"
	 x="0px" y="0px" width="136px" height="37.8px" viewBox="0 0 136 37.8" style="enable-background:new 0 0 136 37.8;"
	 xml:space="preserve">
<style type="text/css">
	.st0{fill:#FFFFFF;stroke:#020210;stroke-width:2;stroke-linecap:round;stroke-linejoin:round;stroke-miterlimit:10;}
	.st1{font-family:'TrendSansOne';}
	.st2{font-size:8.2977px;}
	.st3{fill:none;stroke:#020210;stroke-width:2;stroke-linecap:round;stroke-linejoin:round;stroke-miterlimit:10;}
</style>
<defs>
</defs>
<path class="st0" d="M132.4,36.8H3.6c-1.4,0-2.6-1.2-2.6-2.6V15.4c0-1.4,1.2-2.6,2.6-2.6h128.8c1.4,0,2.6,1.2,2.6,2.6v18.8
	C135,35.6,133.8,36.8,132.4,36.8z"/>
<text transform="matrix(1 0 0 1 2.0001 7.0655)" class="st1 st2">DISPLAY ID</text>
<g>
	<line class="st3" x1="7.9" y1="21.7" x2="14.1" y2="27.9"/>
	<line class="st3" x1="14.1" y1="21.7" x2="8.3" y2="27.5"/>
</g>
<g>
	<line class="st3" x1="20.4" y1="21.7" x2="26.6" y2="27.9"/>
	<line class="st3" x1="26.6" y1="21.7" x2="20.8" y2="27.5"/>
</g>
<g>
	<line class="st3" x1="32.8" y1="21.7" x2="39.1" y2="27.9"/>
	<line class="st3" x1="39.1" y1="21.7" x2="33.2" y2="27.5"/>
</g>
<g>
	<line class="st3" x1="45.3" y1="21.7" x2="51.5" y2="27.9"/>
	<line class="st3" x1="51.5" y1="21.7" x2="45.7" y2="27.5"/>
</g>
<g>
	<line class="st3" x1="57.8" y1="21.7" x2="64" y2="27.9"/>
	<line class="st3" x1="64" y1="21.7" x2="58.2" y2="27.5"/>
</g>
</svg>
