<!-- Generator: Adobe Illustrator 19.2.1, SVG Export Plug-In  -->
<svg version="1.1"
	 xmlns="http://www.w3.org/2000/svg" xmlns:xlink="http://www.w3.org/1999/xlink" xmlns:a="http://ns.adobe.com/AdobeSVGViewerExtensions/3.0/"
	 x="0px" y="0px" width="94.3px" height="71.7px" viewBox="0 0 94.3 71.7" style="enable-background:new 0 0 94.3 71.7;"
	 xml:space="preserve">
<style type="text/css">
	.st0{fill:#FFCD00;}
	.st1{fill:none;stroke:#FFFFFF;stroke-width:2;stroke-linecap:round;stroke-linejoin:round;stroke-miterlimit:10;}
	.st2{fill:#FFFFFF;}
</style>
<defs>
</defs>
<g>
	<rect x="1" class="st0" width="92.3" height="8.2"/>
	<g>
		<rect x="1" class="st0" width="92.3" height="71.7"/>
		<line class="st1" x1="93.3" y1="8.6" x2="1" y2="8.6"/>
		<g>
			<path class="st2" d="M31.4,31.5H17.3c-0.8,0-1.5-0.7-1.5-1.5v-8.4c0-0.8,0.7-1.5,1.5-1.5h14.2c0.8,0,1.5,0.7,1.5,1.5V30
				C33,30.8,32.3,31.5,31.4,31.5z"/>
			<path class="st2" d="M54.4,20H40.2c-0.8,0-1.5,0.7-1.5,1.5V30c0,0.8,0.7,1.5,1.5,1.5h14.2c0.8,0,1.5-0.7,1.5-1.5v-8.4
				C55.9,20.7,55.2,20,54.4,20z"/>
			<path class="st2" d="M77.4,31.5H63.2c-0.8,0-1.5-0.7-1.5-1.5v-8.4c0-0.8,0.7-1.5,1.5-1.5h14.2c0.8,0,1.5,0.7,1.5,1.5V30
				C78.9,30.8,78.2,31.5,77.4,31.5z"/>
			<line class="st1" x1="15.7" y1="43" x2="33" y2="43"/>
			<line class="st1" x1="15.7" y1="48.8" x2="33" y2="48.8"/>
			<line class="st1" x1="38.7" y1="43" x2="55.9" y2="43"/>
			<line class="st1" x1="38.7" y1="48.8" x2="55.9" y2="48.8"/>
			<line class="st1" x1="61.7" y1="43" x2="78.9" y2="43"/>
			<line class="st1" x1="61.7" y1="48.8" x2="78.9" y2="48.8"/>
			<line class="st1" x1="15.7" y1="37.3" x2="33" y2="37.3"/>
			<line class="st1" x1="38.7" y1="37.3" x2="55.9" y2="37.3"/>
			<line class="st1" x1="61.7" y1="37.3" x2="78.9" y2="37.3"/>
		</g>
		<line class="st1" x1="1" y1="60.3" x2="93.3" y2="60.3"/>
		<line class="st1" x1="15.7" y1="66" x2="24.3" y2="66"/>
		<line class="st1" x1="30.7" y1="66" x2="78.9" y2="66"/>
	</g>
</g>
</svg>
